<svg xmlns="http://www.w3.org/2000/svg" viewBox="0 0 512 512">
  <rect width="512" height="512" rx="104" fill="#7f2f44"/>
  <path d="M134 112h244c18 0 32 14 32 32v224c0 18-14 32-32 32H134c-18 0-32-14-32-32V144c0-18 14-32 32-32Z" fill="#fff9ef"/>
  <path d="M102 192h308M102 320h308" stroke="#7f2f44" stroke-width="28" stroke-linecap="round" opacity=".18"/>
  <path d="M173 164h166v184H173z" fill="#fff9ef" stroke="#b98242" stroke-width="18"/>
  <path d="M256 178v156M178 250h156" stroke="#7f2f44" stroke-width="18" stroke-linecap="round"/>
  <path d="M205 124c-32-38 14-73 51-20 37-53 83-18 51 20" fill="none" stroke="#b98242" stroke-width="20" stroke-linecap="round"/>
</svg>
